<svg width="160" height="45" viewBox="0 0 160 45" fill="none" xmlns="http://www.w3.org/2000/svg">
<path d="M0 0.0346414H2.99351V11.7276L13.3766 0.0432901L14.7763 0L4.17028 12.0635L17.5036 26.4539H14.7475L2.99351 14.026V26.4539H0V0.0346414Z" fill="#0D3B2E"/>
<path d="M44.3146 0.822479L53.6874 26.4539H50.8946L48.2828 20.151H36.4259L33.5209 26.4539H32.2736L43.3333 0.822479H44.3146ZM36.5801 19.2352H47.9509L42.785 5.16592L36.5801 19.2352Z" fill="#0D3B2E"/>
<path d="M116.003 0.822479L125.376 26.4539H122.583L119.971 20.151H108.114L105.209 26.4539H103.962L115.021 0.822479H116.003ZM108.268 19.2352H119.639L114.473 5.16592L108.268 19.2352Z" fill="#0D3B2E"/>
<path d="M160 0.0344543V1.11713H149.201V26.4537H145.988V1.11713H136.416V0.0344543H160Z" fill="#0D3B2E"/>
<path d="M88.4127 25.6708C88.4127 25.6708 86.3781 23.8526 84.9495 18.8309C84.1146 15.8959 81.3711 14.3323 79.0834 13.822L80.5361 13.7362C81.4867 13.5154 82.609 13.1904 83.4062 12.7672C84.2035 12.344 84.8842 11.8473 85.4607 11.2708C86.0311 10.7004 86.4726 10.0565 86.7854 9.34509C87.0982 8.62751 87.2576 7.86092 87.2576 7.04528C87.2576 6.04561 87.0553 5.12571 86.6505 4.27941C86.2518 3.43306 85.6509 2.70328 84.8475 2.09001C84.0441 1.48288 83.0383 1.00449 81.8424 0.661049C80.6465 0.323758 80.1743 0.152039 78.5859 0.152039H71.0793V26.5721H73.8943V14.1409L75.9187 14.0186C75.9339 14.0228 75.9452 14.0258 75.9452 14.0258C75.9452 14.0258 80.5772 14.1124 82.2656 19.3072C83.9539 24.502 85.6855 26.3202 89.0188 26.2769C89.0188 25.7141 88.4127 25.6708 88.4127 25.6708ZM73.7778 13.4173V1.08428H78.2547C79.193 1.08428 80.0516 1.23145 80.8366 1.53198C81.6216 1.83251 82.2962 2.24956 82.8543 2.78308C83.4186 3.31049 83.8601 3.94827 84.1728 4.67809C84.4856 5.41403 84.6451 6.21742 84.6451 7.10057C84.6451 8.06957 84.4488 8.94038 84.0441 9.72541C83.6454 10.5043 83.0935 11.1727 82.3821 11.7247C81.6768 12.2705 80.8366 12.6937 79.8676 12.9819C78.8925 13.2763 77.8377 13.4173 76.697 13.4173H73.7778Z" fill="#0D3B2E"/>
<path d="M8.19664 44.7768C7.89818 44.6427 7.66409 44.4565 7.49445 44.2183C7.32468 43.9802 7.23704 43.705 7.23166 43.3929H8.02827C8.05561 43.6613 8.16649 43.8871 8.36089 44.0705C8.55517 44.254 8.83853 44.3456 9.21093 44.3456C9.56679 44.3456 9.84743 44.2566 10.0527 44.0787C10.258 43.9008 10.3607 43.6722 10.3607 43.3929C10.3607 43.174 10.3004 42.996 10.18 42.8591C10.0595 42.7223 9.90895 42.6182 9.72833 42.547C9.54762 42.4759 9.30395 42.3992 8.9974 42.3171C8.61962 42.2185 8.31701 42.12 8.08992 42.0215C7.86265 41.9229 7.66825 41.7683 7.50679 41.5574C7.3452 41.3467 7.26452 41.0634 7.26452 40.7074C7.26452 40.3953 7.34381 40.1189 7.50268 39.8779C7.66142 39.6371 7.88457 39.4509 8.172 39.3195C8.45943 39.1881 8.78926 39.1224 9.16166 39.1224C9.69818 39.1224 10.1376 39.2566 10.4798 39.5248C10.8219 39.7931 11.0149 40.149 11.0588 40.5925H10.2375C10.2101 40.3735 10.0951 40.1806 9.89259 40.0135C9.68996 39.8465 9.42165 39.763 9.08775 39.763C8.77569 39.763 8.52108 39.8438 8.32396 40.0053C8.12685 40.1668 8.02827 40.3927 8.02827 40.6828C8.02827 40.8909 8.08708 41.0606 8.20486 41.192C8.32252 41.3234 8.46766 41.4234 8.64014 41.4918C8.81258 41.5603 9.05485 41.6383 9.367 41.7258C9.74478 41.8299 10.0486 41.9325 10.2786 42.0338C10.5086 42.1352 10.7056 42.2912 10.8699 42.502C11.0342 42.7128 11.1163 42.9989 11.1163 43.3602C11.1163 43.6394 11.0424 43.9023 10.8946 44.1487C10.7468 44.395 10.5277 44.595 10.2376 44.7482C9.94728 44.9015 9.6052 44.9782 9.21097 44.9782C8.83314 44.978 8.495 44.911 8.19664 44.7768Z" fill="#0D3B2E"/>
<path d="M20.0762 42.9496H16.479C16.5064 43.393 16.6583 43.7394 16.9348 43.9884C17.2113 44.2377 17.5467 44.3621 17.9409 44.3621C18.2639 44.3621 18.5335 44.2869 18.7499 44.1362C18.9661 43.9857 19.118 43.7845 19.2057 43.5326H20.0105C19.89 43.9652 19.6492 44.3169 19.2878 44.5879C18.9264 44.859 18.4774 44.9945 17.9409 44.9945C17.5138 44.9945 17.1319 44.8987 16.7952 44.707C16.4585 44.5154 16.1943 44.243 16.0027 43.8899C15.811 43.5367 15.7153 43.1275 15.7153 42.662C15.7153 42.1968 15.8083 41.7888 15.9945 41.4383C16.1806 41.088 16.4421 40.8183 16.7788 40.6294C17.1155 40.4405 17.5028 40.346 17.9409 40.346C18.368 40.346 18.7457 40.4392 19.0742 40.6252C19.4027 40.8115 19.656 41.0675 19.8339 41.3931C20.0118 41.7189 20.1009 42.0871 20.1009 42.4977C20.1009 42.6403 20.0926 42.7908 20.0762 42.9496ZM19.1399 41.6068C19.0139 41.4015 18.8429 41.2454 18.6267 41.1386C18.4103 41.0318 18.1709 40.9785 17.9081 40.9785C17.5303 40.9785 17.2086 41.099 16.9431 41.3398C16.6774 41.5808 16.5255 41.9147 16.4872 42.3418H19.3289C19.3289 42.0572 19.2658 41.8121 19.1399 41.6068Z" fill="#0D3B2E"/>
<path d="M24.8644 41.4424C25.0505 41.0948 25.3091 40.8252 25.6405 40.6335C25.9717 40.4419 26.3509 40.346 26.7779 40.346C27.3309 40.346 27.7867 40.4803 28.1454 40.7485C28.5039 41.0168 28.7408 41.389 28.8558 41.8654H28.051C27.9742 41.5917 27.8251 41.3755 27.6033 41.2166C27.3816 41.0578 27.1065 40.9784 26.7779 40.9784C26.3509 40.9784 26.006 41.125 25.7432 41.4178C25.4804 41.7108 25.3489 42.1255 25.3489 42.662C25.3489 43.2041 25.4804 43.623 25.7432 43.9186C26.006 44.2143 26.3509 44.3621 26.7779 44.3621C27.1065 44.3621 27.3802 44.2855 27.5992 44.1321C27.8181 43.9789 27.9688 43.7599 28.0509 43.4751H28.8558C28.7353 43.935 28.4944 44.3033 28.133 44.5797C27.7717 44.8562 27.3199 44.9945 26.7779 44.9945C26.3509 44.9945 25.9716 44.8987 25.6404 44.707C25.3091 44.5154 25.0504 44.2444 24.8644 43.894C24.6781 43.5436 24.5851 43.133 24.5851 42.662C24.5852 42.1967 24.6782 41.7902 24.8644 41.4424Z" fill="#0D3B2E"/>
<path d="M37.6186 40.4199V44.9205H36.8712V44.2553C36.7288 44.4852 36.5304 44.6646 36.2758 44.7932C36.0212 44.9218 35.7406 44.9862 35.434 44.9862C35.0835 44.9862 34.7688 44.9137 34.4896 44.7685C34.2103 44.6235 33.9899 44.4059 33.8284 44.1156C33.6668 43.8255 33.5862 43.4723 33.5862 43.0562V40.4199H34.3253V42.9576C34.3253 43.4011 34.4375 43.742 34.662 43.9801C34.8865 44.2183 35.193 44.3374 35.5818 44.3374C35.9814 44.3374 36.2963 44.2142 36.5263 43.9678C36.7562 43.7214 36.8712 43.3629 36.8712 42.8919V40.4199H37.6186Z" fill="#0D3B2E"/>
<path d="M43.9713 40.5513C44.2148 40.409 44.5119 40.3377 44.8624 40.3377V41.1098H44.6653C43.8276 41.1098 43.4087 41.5643 43.4087 42.4731V44.9205H42.6614V40.4199H43.4087V41.1508C43.5401 40.8935 43.7276 40.6937 43.9713 40.5513Z" fill="#0D3B2E"/>
<path d="M53.584 42.9496H49.9868C50.0142 43.393 50.1661 43.7394 50.4426 43.9884C50.7191 44.2377 51.0545 44.3621 51.4487 44.3621C51.7717 44.3621 52.0413 44.2869 52.2577 44.1362C52.4739 43.9857 52.6258 43.7845 52.7135 43.5326H53.5183C53.3978 43.9652 53.157 44.3169 52.7956 44.5879C52.4342 44.859 51.9852 44.9945 51.4487 44.9945C51.0216 44.9945 50.6397 44.8987 50.303 44.707C49.9663 44.5154 49.7021 44.243 49.5105 43.8899C49.3188 43.5367 49.2231 43.1275 49.2231 42.662C49.2231 42.1968 49.3161 41.7888 49.5023 41.4383C49.6884 41.088 49.9499 40.8183 50.2866 40.6294C50.6233 40.4405 51.0106 40.346 51.4487 40.346C51.8758 40.346 52.2535 40.4392 52.582 40.6252C52.9106 40.8115 53.1638 41.0675 53.3417 41.3931C53.5196 41.7189 53.6087 42.0871 53.6087 42.4977C53.6087 42.6403 53.6004 42.7908 53.584 42.9496ZM52.6478 41.6068C52.5217 41.4015 52.3507 41.2454 52.1345 41.1386C51.9181 41.0318 51.6787 40.9785 51.4159 40.9785C51.0381 40.9785 50.7164 41.099 50.4509 41.3398C50.1852 41.5808 50.0333 41.9147 49.9951 42.3418H52.8367C52.8367 42.0572 52.7736 41.8121 52.6478 41.6068Z" fill="#0D3B2E"/>
<path d="M58.2487 44.8219C58.1501 44.7233 58.1009 44.603 58.1009 44.4605C58.1009 44.3182 58.1501 44.1977 58.2487 44.0992C58.3472 44.0007 58.4676 43.9514 58.61 43.9514C58.7468 43.9514 58.8632 44.0007 58.959 44.0992C59.0548 44.1977 59.1028 44.3182 59.1028 44.4605C59.1028 44.603 59.0548 44.7233 58.959 44.8219C58.8632 44.9204 58.7468 44.9697 58.61 44.9697C58.4676 44.9697 58.3473 44.9204 58.2487 44.8219Z" fill="#0D3B2E"/>
<path d="M64.6752 44.7768C64.3768 44.6427 64.1427 44.4565 63.973 44.2183C63.8033 43.9802 63.7156 43.705 63.7102 43.3929H64.5068C64.5342 43.6613 64.6451 43.8871 64.8395 44.0705C65.0337 44.254 65.3171 44.3456 65.6895 44.3456C66.0454 44.3456 66.326 44.2566 66.5313 44.0787C66.7366 43.9008 66.8393 43.6722 66.8393 43.3929C66.8393 43.174 66.779 42.996 66.6586 42.8591C66.5381 42.7223 66.3875 42.6182 66.2069 42.547C66.0262 42.4759 65.7825 42.3992 65.476 42.3171C65.0982 42.2185 64.7956 42.12 64.5685 42.0215C64.3412 41.9229 64.1468 41.7683 63.9854 41.5574C63.8238 41.3467 63.7431 41.0634 63.7431 40.7074C63.7431 40.3953 63.8224 40.1189 63.9813 39.8779C64.14 39.6371 64.3631 39.4509 64.6506 39.3195C64.938 39.1881 65.2678 39.1224 65.6402 39.1224C66.1768 39.1224 66.6161 39.2566 66.9584 39.5248C67.3005 39.7931 67.4935 40.149 67.5374 40.5925H66.7161C66.6887 40.3735 66.5737 40.1806 66.3712 40.0135C66.1685 39.8465 65.9002 39.763 65.5663 39.763C65.2543 39.763 64.9997 39.8438 64.8025 40.0053C64.6054 40.1668 64.5068 40.3927 64.5068 40.6828C64.5068 40.8909 64.5657 41.0606 64.6834 41.192C64.8011 41.3234 64.9462 41.4234 65.1187 41.4918C65.2912 41.5603 65.5334 41.6383 65.8456 41.7258C66.2234 41.8299 66.5272 41.9325 66.7572 42.0338C66.9871 42.1352 67.1842 42.2912 67.3485 42.502C67.5127 42.7128 67.5949 42.9989 67.5949 43.3602C67.5949 43.6394 67.521 43.9023 67.3732 44.1487C67.2253 44.395 67.0063 44.595 66.7161 44.7482C66.4259 44.9015 66.0838 44.9782 65.6895 44.9782C65.3117 44.978 64.9736 44.911 64.6752 44.7768Z" fill="#0D3B2E"/>
<path d="M72.4731 41.4424C72.6591 41.0948 72.9152 40.8252 73.241 40.6335C73.5667 40.4419 73.9294 40.346 74.3291 40.346C74.7233 40.346 75.0655 40.431 75.3557 40.6006C75.6459 40.7704 75.8621 40.9839 76.0045 41.2412V40.4199H76.7601V44.9205H76.0045V44.0828C75.8567 44.3456 75.6362 44.5633 75.3434 44.7357C75.0505 44.9082 74.7096 44.9944 74.3209 44.9944C73.9212 44.9944 73.5598 44.8959 73.2369 44.6988C72.9138 44.5017 72.6591 44.2253 72.4731 43.8693C72.2869 43.5135 72.1938 43.1083 72.1938 42.6538C72.1938 42.1939 72.2869 41.7902 72.4731 41.4424ZM75.7992 41.775C75.6623 41.5233 75.4775 41.3303 75.2449 41.196C75.0121 41.0619 74.7562 40.9948 74.477 40.9948C74.1977 40.9948 73.9432 41.0605 73.7132 41.1919C73.4832 41.3233 73.2997 41.515 73.1629 41.7668C73.026 42.0187 72.9576 42.3144 72.9576 42.6538C72.9576 42.9987 73.026 43.2985 73.1629 43.5531C73.2997 43.8076 73.4832 44.0021 73.7132 44.1362C73.9432 44.2704 74.1977 44.3374 74.477 44.3374C74.7562 44.3374 75.0121 44.2704 75.2449 44.1362C75.4775 44.002 75.6623 43.8076 75.7992 43.5531C75.936 43.2985 76.0045 43.0015 76.0045 42.662C76.0045 42.3226 75.936 42.0269 75.7992 41.775Z" fill="#0D3B2E"/>
<path d="M83.4783 44.2306L84.8745 40.4199H85.6711L83.9053 44.9205H83.0348L81.269 40.4199H82.0739L83.4783 44.2306Z" fill="#0D3B2E"/>
<path d="M94.2696 42.9496H90.6724C90.6998 43.393 90.8517 43.7394 91.1282 43.9884C91.4047 44.2377 91.7401 44.3621 92.1343 44.3621C92.4573 44.3621 92.7269 44.2869 92.9433 44.1362C93.1595 43.9857 93.3114 43.7845 93.3991 43.5326H94.2039C94.0834 43.9652 93.8426 44.3169 93.4812 44.5879C93.1198 44.859 92.6708 44.9945 92.1343 44.9945C91.7072 44.9945 91.3254 44.8987 90.9886 44.707C90.6519 44.5154 90.3877 44.243 90.1961 43.8899C90.0044 43.5367 89.9087 43.1275 89.9087 42.662C89.9087 42.1968 90.0017 41.7888 90.1879 41.4383C90.374 41.088 90.6355 40.8183 90.9722 40.6294C91.3089 40.4405 91.6962 40.346 92.1343 40.346C92.5614 40.346 92.9391 40.4392 93.2676 40.6252C93.5962 40.8115 93.8494 41.0675 94.0273 41.3931C94.2052 41.7189 94.2943 42.0871 94.2943 42.4977C94.2943 42.6403 94.286 42.7908 94.2696 42.9496ZM93.3334 41.6068C93.2074 41.4015 93.0363 41.2454 92.8201 41.1386C92.6037 41.0318 92.3643 40.9785 92.1015 40.9785C91.7237 40.9785 91.402 41.099 91.1365 41.3398C90.8708 41.5808 90.7189 41.9147 90.6807 42.3418H93.5223C93.5223 42.0572 93.4593 41.8121 93.3334 41.6068Z" fill="#0D3B2E"/>
<path d="M98.9343 44.8219C98.8358 44.7233 98.7865 44.603 98.7865 44.4605C98.7865 44.3182 98.8358 44.1977 98.9343 44.0992C99.0329 44.0007 99.1532 43.9514 99.2957 43.9514C99.4325 43.9514 99.5488 44.0007 99.6447 44.0992C99.7404 44.1977 99.7884 44.3182 99.7884 44.4605C99.7884 44.603 99.7404 44.7233 99.6447 44.8219C99.5488 44.9204 99.4324 44.9697 99.2957 44.9697C99.1532 44.9697 99.0329 44.9204 98.9343 44.8219Z" fill="#0D3B2E"/>
<path d="M111.278 39.1963V44.9205H110.531V39.1963H111.278Z" fill="#0D3B2E"/>
<path d="M119.852 40.8347C120.191 41.166 120.361 41.6436 120.361 42.2678V44.9205H119.622V42.3745C119.622 41.9257 119.51 41.582 119.285 41.3438C119.061 41.1057 118.754 40.9866 118.365 40.9866C117.971 40.9866 117.658 41.1098 117.425 41.3561C117.192 41.6025 117.076 41.9612 117.076 42.432V44.9204H116.329V40.4199H117.076V41.0604C117.224 40.8305 117.425 40.6526 117.68 40.5266C117.934 40.4007 118.215 40.3377 118.522 40.3377C119.069 40.3378 119.512 40.5034 119.852 40.8347Z" fill="#0D3B2E"/>
<path d="M127.038 44.2306L128.434 40.4199H129.231L127.465 44.9205H126.595L124.829 40.4199H125.634L127.038 44.2306Z" fill="#0D3B2E"/>
<path d="M137.829 42.9496H134.232C134.26 43.393 134.412 43.7394 134.688 43.9884C134.965 44.2377 135.3 44.3621 135.694 44.3621C136.017 44.3621 136.287 44.2869 136.503 44.1362C136.719 43.9857 136.871 43.7845 136.959 43.5326H137.764C137.643 43.9652 137.402 44.3169 137.041 44.5879C136.68 44.859 136.231 44.9945 135.694 44.9945C135.267 44.9945 134.885 44.8987 134.548 44.707C134.212 44.5154 133.948 44.243 133.756 43.8899C133.564 43.5367 133.469 43.1275 133.469 42.662C133.469 42.1968 133.562 41.7888 133.748 41.4383C133.934 41.088 134.195 40.8183 134.532 40.6294C134.869 40.4405 135.256 40.346 135.694 40.346C136.121 40.346 136.499 40.4392 136.828 40.6252C137.156 40.8115 137.409 41.0675 137.587 41.3931C137.765 41.7189 137.854 42.0871 137.854 42.4977C137.854 42.6403 137.846 42.7908 137.829 42.9496ZM136.893 41.6068C136.767 41.4015 136.596 41.2454 136.38 41.1386C136.164 41.0318 135.924 40.9785 135.661 40.9785C135.284 40.9785 134.962 41.099 134.696 41.3398C134.431 41.5808 134.279 41.9147 134.241 42.3418H137.082C137.082 42.0572 137.019 41.8121 136.893 41.6068Z" fill="#0D3B2E"/>
<path d="M143.283 44.8179C143.009 44.7002 142.793 44.536 142.634 44.3251C142.475 44.1144 142.388 43.8721 142.371 43.5983H143.143C143.165 43.8228 143.271 44.0062 143.459 44.1485C143.648 44.291 143.896 44.3621 144.203 44.3621C144.487 44.3621 144.712 44.2992 144.876 44.1732C145.04 44.0473 145.122 43.8885 145.122 43.6969C145.122 43.4997 145.035 43.3533 144.86 43.2575C144.684 43.1617 144.413 43.0673 144.047 42.9741C143.713 42.8866 143.44 42.7975 143.229 42.7072C143.019 42.6168 142.838 42.4828 142.687 42.3048C142.537 42.1269 142.462 41.8929 142.462 41.6026C142.462 41.3726 142.53 41.1619 142.667 40.9702C142.804 40.7786 142.998 40.6267 143.25 40.5144C143.502 40.4023 143.789 40.346 144.112 40.346C144.611 40.346 145.013 40.4721 145.32 40.7238C145.626 40.9757 145.79 41.3206 145.812 41.7586H145.065C145.049 41.5233 144.954 41.3344 144.782 41.192C144.609 41.0497 144.378 40.9784 144.088 40.9784C143.819 40.9784 143.606 41.0359 143.447 41.1509C143.288 41.2659 143.209 41.4165 143.209 41.6026C143.209 41.7504 143.257 41.8723 143.353 41.968C143.449 42.0639 143.569 42.1405 143.714 42.198C143.859 42.2555 144.06 42.3199 144.318 42.391C144.641 42.4787 144.904 42.5649 145.106 42.6497C145.309 42.7347 145.483 42.862 145.628 43.0316C145.773 43.2014 145.848 43.4232 145.854 43.6969C145.854 43.9432 145.785 44.165 145.648 44.3621C145.511 44.5592 145.318 44.7139 145.069 44.8261C144.82 44.9382 144.534 44.9945 144.211 44.9945C143.866 44.9945 143.557 44.9356 143.283 44.8179Z" fill="#0D3B2E"/>
<path d="M151.594 41.036V43.6887C151.594 43.9077 151.64 44.0623 151.734 44.1527C151.827 44.243 151.988 44.2882 152.218 44.2882H152.768V44.9206H152.095C151.679 44.9206 151.367 44.8248 151.159 44.6332C150.951 44.4416 150.847 44.1268 150.847 43.6887V41.036H150.264V40.4201H150.847V39.2867H151.594V40.4201H152.768V41.036L151.594 41.036Z" fill="#0D3B2E"/>
</svg>
