<svg width="1440" height="900" viewBox="0 0 1440 900" fill="none" xmlns="http://www.w3.org/2000/svg">
<g opacity="0.04">
<path d="M758.473 -69.9157C758.473 -6.95346 783.919 48.0901 821.829 78.2081C764.574 53.4129 724.456 -3.57835 724.456 -69.9157C724.456 -136.254 764.574 -193.244 821.829 -217.91C783.919 -187.793 758.473 -132.749 758.473 -69.9157Z" fill="url(#paint0_linear_10_8291)"/>
<path d="M1215 461.867V96.5397L1243.72 53.776V461.867H1215Z" fill="url(#paint1_linear_10_8291)"/>
<path d="M1218.99 185.049L1005.93 427.423L1001 423.009L1195.49 184.661L1024.63 12.2595C1010.09 36.7958 989.056 57.3072 963.999 71.1979C997.495 40.0409 1019.31 -11.4971 1019.31 -69.9157C1019.31 -128.075 997.496 -179.484 964.259 -210.771C1013.72 -183.249 1047.09 -130.542 1047.09 -69.9157C1047.09 -49.015 1043.07 -29.0233 1035.8 -10.7179L1218.99 185.049Z" fill="url(#paint2_linear_10_8291)"/>
<path d="M782.065 215.057C782.065 262.339 802.796 303.674 833.682 326.292C787.037 307.672 754.353 264.874 754.353 215.057C754.353 165.239 787.037 122.442 833.682 103.919C802.797 126.537 782.065 167.872 782.065 215.057Z" fill="url(#paint3_linear_10_8291)"/>
<path d="M1017.19 215.056C1017.19 260.681 989.905 300.359 949.5 321.027C976.789 297.629 994.559 258.926 994.559 215.056C994.559 171.38 976.789 132.775 949.712 109.28C990.011 129.947 1017.19 169.528 1017.19 215.056Z" fill="url(#paint4_linear_10_8291)"/>
<path d="M1236.11 492.621C1173.14 492.621 1118.1 518.064 1087.97 555.972C1112.77 498.722 1169.77 458.607 1236.11 458.607C1302.45 458.607 1359.45 498.722 1384.12 555.972C1354 518.064 1298.95 492.621 1236.11 492.621Z" fill="url(#paint5_linear_10_8291)"/>
<path d="M680.105 969.909C680.105 906.946 654.659 851.903 616.748 821.785C674.003 846.58 714.121 903.571 714.121 969.909C714.121 1036.25 674.003 1093.24 616.748 1117.9C654.659 1087.79 680.105 1032.74 680.105 969.909Z" fill="url(#paint6_linear_10_8291)"/>
<path d="M981.123 953.093L738.728 740.06L743.143 735.127L981.511 929.596L1153.93 758.754C1129.39 744.213 1108.88 723.182 1094.98 698.127C1126.14 731.621 1177.69 753.431 1236.11 753.431C1294.27 753.431 1345.69 731.622 1376.98 698.387C1349.45 747.849 1296.74 781.212 1236.11 781.212C1215.21 781.212 1195.21 777.188 1176.91 769.918L981.123 953.093Z" fill="url(#paint7_linear_10_8291)"/>
<path d="M951.111 516.21C903.825 516.21 862.486 536.939 839.866 567.822C858.488 521.181 901.29 488.499 951.111 488.499C1000.93 488.499 1043.73 521.18 1062.26 567.822C1039.64 536.939 998.3 516.21 951.111 516.21Z" fill="url(#paint8_linear_10_8291)"/>
<path d="M951.113 751.318C905.484 751.318 865.802 724.031 845.133 683.63C868.532 710.917 907.239 728.685 951.113 728.685C994.792 728.685 1033.4 710.917 1056.9 683.842C1036.23 724.137 996.644 751.318 951.113 751.318Z" fill="url(#paint9_linear_10_8291)"/>
<path d="M681.523 969.909C681.523 906.946 656.077 851.903 618.167 821.785C675.422 846.58 715.54 903.571 715.54 969.909C715.54 1036.25 675.422 1093.24 618.167 1117.9C656.077 1087.79 681.523 1032.74 681.523 969.909Z" fill="url(#paint10_linear_10_8291)"/>
<path d="M225.001 438.129V803.456L196.285 846.22V438.129H225.001Z" fill="url(#paint11_linear_10_8291)"/>
<path d="M221.017 714.946L434.069 472.572L439.002 476.986L244.516 715.335L415.373 887.736C429.915 863.2 450.947 842.688 476.005 828.797C442.508 859.954 420.696 911.493 420.696 969.912C420.696 1028.07 442.508 1079.48 475.745 1110.77C426.279 1083.24 392.913 1030.54 392.913 969.912C392.913 949.011 396.937 929.019 404.208 910.714L221.017 714.946Z" fill="url(#paint12_linear_10_8291)"/>
<path d="M657.935 684.933C657.935 637.651 637.204 596.316 606.318 573.698C652.963 592.318 685.647 635.116 685.647 684.933C685.647 734.751 652.963 777.548 606.318 796.071C637.203 773.454 657.935 732.118 657.935 684.933Z" fill="url(#paint13_linear_10_8291)"/>
<path d="M422.803 684.935C422.803 639.31 450.092 599.632 490.497 578.964C463.208 602.362 445.438 641.065 445.438 684.935C445.438 728.611 463.208 767.216 490.285 790.711C449.987 770.044 422.803 730.463 422.803 684.935Z" fill="url(#paint14_linear_10_8291)"/>
<path d="M203.89 407.373C266.857 407.373 321.906 381.929 352.026 344.021C327.229 401.272 270.233 441.386 203.89 441.386C137.546 441.386 80.5507 401.272 55.8824 344.021C86.0029 381.929 141.051 407.373 203.89 407.373Z" fill="url(#paint15_linear_10_8291)"/>
<path d="M759.896 -69.9159C759.896 -6.95364 785.342 48.0899 823.253 78.2079C765.998 53.4127 725.88 -3.57854 725.88 -69.9159C725.88 -136.254 765.998 -193.244 823.253 -217.911C785.342 -187.793 759.896 -132.749 759.896 -69.9159Z" fill="url(#paint16_linear_10_8291)"/>
<path d="M458.878 -53.0985L701.272 159.935L696.858 164.869L458.489 -29.6008L286.073 141.241C310.611 155.782 331.125 176.813 345.016 201.868C313.857 168.374 262.314 146.564 203.89 146.564C145.726 146.564 94.3131 168.374 63.0235 201.608C90.5473 152.146 143.259 118.783 203.89 118.783C224.793 118.783 244.787 122.807 263.093 130.077L458.878 -53.0985Z" fill="url(#paint17_linear_10_8291)"/>
<path d="M488.891 383.786C536.177 383.786 577.516 363.057 600.135 332.174C581.514 378.815 538.712 411.496 488.891 411.496C439.069 411.496 396.268 378.815 377.743 332.174C400.363 363.056 441.701 383.786 488.891 383.786Z" fill="url(#paint18_linear_10_8291)"/>
<path d="M488.89 148.674C534.519 148.674 574.2 175.961 594.87 216.363C571.47 189.076 532.764 171.308 488.89 171.308C445.211 171.308 406.602 189.076 383.105 216.151C403.774 175.856 443.359 148.674 488.89 148.674Z" fill="url(#paint19_linear_10_8291)"/>
</g>
<defs>
<linearGradient id="paint0_linear_10_8291" x1="724.456" y1="-69.8513" x2="821.829" y2="-69.8513" gradientUnits="userSpaceOnUse">
<stop stop-color="#CD8C2A"/>
<stop offset="1" stop-color="#594A32"/>
</linearGradient>
<linearGradient id="paint1_linear_10_8291" x1="1229.36" y1="52.6048" x2="1229.36" y2="373.398" gradientUnits="userSpaceOnUse">
<stop stop-color="#AD8C4E"/>
<stop offset="1" stop-color="#594A32"/>
</linearGradient>
<linearGradient id="paint2_linear_10_8291" x1="963.998" y1="108.326" x2="1218.99" y2="108.326" gradientUnits="userSpaceOnUse">
<stop stop-color="#CD8C2A"/>
<stop offset="1" stop-color="#594A32"/>
</linearGradient>
<linearGradient id="paint3_linear_10_8291" x1="754.353" y1="215.105" x2="833.682" y2="215.105" gradientUnits="userSpaceOnUse">
<stop stop-color="#CD8C2A"/>
<stop offset="1" stop-color="#594A32"/>
</linearGradient>
<linearGradient id="paint4_linear_10_8291" x1="949.5" y1="215.153" x2="1017.19" y2="215.153" gradientUnits="userSpaceOnUse">
<stop stop-color="#CD8C2A"/>
<stop offset="1" stop-color="#594A32"/>
</linearGradient>
<linearGradient id="paint5_linear_10_8291" x1="1236.05" y1="458.607" x2="1236.05" y2="555.972" gradientUnits="userSpaceOnUse">
<stop stop-color="#CD8C2A"/>
<stop offset="1" stop-color="#594A32"/>
</linearGradient>
<linearGradient id="paint6_linear_10_8291" x1="511.455" y1="979.495" x2="731.403" y2="959.332" gradientUnits="userSpaceOnUse">
<stop stop-color="#AD8C4E"/>
<stop offset="1" stop-color="#594A32"/>
</linearGradient>
<linearGradient id="paint7_linear_10_8291" x1="1057.85" y1="698.127" x2="1057.85" y2="953.093" gradientUnits="userSpaceOnUse">
<stop stop-color="#CD8C2A"/>
<stop offset="1" stop-color="#594A32"/>
</linearGradient>
<linearGradient id="paint8_linear_10_8291" x1="951.062" y1="488.499" x2="951.062" y2="567.821" gradientUnits="userSpaceOnUse">
<stop stop-color="#CD8C2A"/>
<stop offset="1" stop-color="#594A32"/>
</linearGradient>
<linearGradient id="paint9_linear_10_8291" x1="951.015" y1="683.629" x2="951.015" y2="751.318" gradientUnits="userSpaceOnUse">
<stop stop-color="#CD8C2A"/>
<stop offset="1" stop-color="#594A32"/>
</linearGradient>
<linearGradient id="paint10_linear_10_8291" x1="715.54" y1="969.844" x2="618.167" y2="969.844" gradientUnits="userSpaceOnUse">
<stop stop-color="#CD8C2A"/>
<stop offset="1" stop-color="#594A32"/>
</linearGradient>
<linearGradient id="paint11_linear_10_8291" x1="210.643" y1="847.391" x2="210.643" y2="526.598" gradientUnits="userSpaceOnUse">
<stop stop-color="#AD8C4E"/>
<stop offset="1" stop-color="#594A32"/>
</linearGradient>
<linearGradient id="paint12_linear_10_8291" x1="476.005" y1="791.669" x2="221.017" y2="791.669" gradientUnits="userSpaceOnUse">
<stop stop-color="#CD8C2A"/>
<stop offset="1" stop-color="#594A32"/>
</linearGradient>
<linearGradient id="paint13_linear_10_8291" x1="685.647" y1="684.885" x2="606.318" y2="684.885" gradientUnits="userSpaceOnUse">
<stop stop-color="#CD8C2A"/>
<stop offset="1" stop-color="#594A32"/>
</linearGradient>
<linearGradient id="paint14_linear_10_8291" x1="490.497" y1="684.838" x2="422.803" y2="684.838" gradientUnits="userSpaceOnUse">
<stop stop-color="#CD8C2A"/>
<stop offset="1" stop-color="#594A32"/>
</linearGradient>
<linearGradient id="paint15_linear_10_8291" x1="203.954" y1="441.386" x2="203.954" y2="344.021" gradientUnits="userSpaceOnUse">
<stop stop-color="#CD8C2A"/>
<stop offset="1" stop-color="#594A32"/>
</linearGradient>
<linearGradient id="paint16_linear_10_8291" x1="928.546" y1="-79.5025" x2="708.598" y2="-59.3389" gradientUnits="userSpaceOnUse">
<stop stop-color="#AD8C4E"/>
<stop offset="1" stop-color="#594A32"/>
</linearGradient>
<linearGradient id="paint17_linear_10_8291" x1="382.148" y1="201.868" x2="382.148" y2="-53.0984" gradientUnits="userSpaceOnUse">
<stop stop-color="#CD8C2A"/>
<stop offset="1" stop-color="#594A32"/>
</linearGradient>
<linearGradient id="paint18_linear_10_8291" x1="488.939" y1="411.496" x2="488.939" y2="332.174" gradientUnits="userSpaceOnUse">
<stop stop-color="#CD8C2A"/>
<stop offset="1" stop-color="#594A32"/>
</linearGradient>
<linearGradient id="paint19_linear_10_8291" x1="488.988" y1="216.363" x2="488.988" y2="148.674" gradientUnits="userSpaceOnUse">
<stop stop-color="#CD8C2A"/>
<stop offset="1" stop-color="#594A32"/>
</linearGradient>
</defs>
</svg>
