<?xml version="1.0" standalone="no"?>
<!DOCTYPE svg PUBLIC "-//W3C//DTD SVG 20010904//EN"
 "http://www.w3.org/TR/2001/REC-SVG-20010904/DTD/svg10.dtd">
<svg version="1.0" xmlns="http://www.w3.org/2000/svg"
 width="2400" height="1308" viewBox="0 0 600.000000 327.000000"
 preserveAspectRatio="xMidYMid meet" shape-rendering="geometricPrecision" text-rendering="geometricPrecision">
<g transform="translate(0.000000,327.000000) scale(0.100000,-0.100000)"
fill="#000000" stroke="none">
<path d="M3708 2773 c7 -3 16 -2 19 1 4 3 -2 6 -13 5 -11 0 -14 -3 -6 -6z"/>
<path d="M3648 2763 c7 -3 16 -2 19 1 4 3 -2 6 -13 5 -11 0 -14 -3 -6 -6z"/>
<path d="M3667 2709 c-78 -75 -221 -133 -422 -168 -130 -23 -160 -30 -218 -55
-46 -20 -123 -89 -143 -128 -8 -15 -19 -28 -25 -28 -8 0 -8 4 -1 13 5 6 13 27
17 45 7 33 6 33 -17 21 -42 -23 -138 -122 -173 -178 -34 -58 -67 -147 -79
-215 l-7 -38 29 33 c16 19 35 52 42 74 19 61 67 145 110 195 l39 45 1 -69 0
-69 24 22 c13 13 38 50 56 82 65 123 126 161 314 195 212 40 296 66 399 126
26 15 47 24 47 20 0 -24 -35 -120 -55 -151 -59 -92 -169 -159 -298 -182 l-70
-13 49 -17 c53 -19 149 -25 158 -10 3 5 -1 11 -8 14 -8 3 -17 1 -20 -6 -5 -9
-7 -9 -11 -1 -3 7 -16 10 -28 7 -12 -2 -5 5 16 16 21 11 44 18 52 15 22 -9
108 42 152 89 49 53 75 102 96 177 16 56 28 181 18 179 -3 -1 -23 -19 -44 -40z
m10 -44 c0 -8 -4 -15 -9 -15 -4 0 -8 7 -8 15 0 8 4 15 8 15 5 0 9 -7 9 -15z
m-831 -320 c-6 -17 13 -35 30 -28 21 8 17 -7 -7 -28 -11 -10 -18 -22 -15 -28
4 -5 2 -12 -4 -16 -9 -5 -16 32 -11 59 1 4 -4 15 -11 24 -10 12 -10 16 0 19 6
3 9 10 6 15 -5 7 -2 8 5 4 7 -5 10 -14 7 -21z"/>
<path d="M3410 2462 c-53 -26 -163 -78 -245 -117 -226 -105 -356 -197 -515
-359 -94 -97 -159 -145 -224 -167 l-51 -17 -16 -76 c-9 -41 -27 -104 -39 -139
-35 -100 -16 -121 62 -68 54 36 109 60 173 76 l50 12 7 48 c17 122 66 184 163
209 32 9 73 16 90 16 109 1 273 66 360 144 l50 45 -45 2 c-25 2 -64 4 -88 5
-23 1 -50 5 -60 9 -9 5 -25 7 -36 6 -11 -2 -16 2 -12 8 4 6 28 11 54 10 26 0
41 -3 34 -6 -6 -2 -10 -8 -7 -12 8 -14 182 18 240 44 63 28 109 62 160 122
l35 41 -59 -2 c-46 -1 -57 -4 -49 -13 6 -7 15 -10 21 -6 6 4 7 1 2 -7 -6 -10
-3 -12 11 -7 18 7 18 6 2 -6 -10 -8 -14 -18 -10 -22 4 -5 1 -5 -6 -1 -7 4 -9
13 -5 19 4 7 -9 -2 -29 -19 -73 -64 -136 -83 -339 -103 -84 -8 -189 -39 -189
-56 0 -3 19 -2 43 1 27 4 66 0 108 -12 35 -9 83 -18 106 -18 50 -1 59 -8 33
-24 -16 -10 -18 -9 -14 3 4 8 1 15 -5 15 -6 0 -11 -4 -11 -8 0 -10 -87 -55
-146 -76 -23 -8 -86 -20 -140 -27 -114 -14 -164 -29 -211 -65 -39 -30 -79
-103 -94 -174 -8 -36 -15 -50 -27 -50 -21 0 -172 -70 -153 -70 11 0 10 -5 -5
-19 -10 -10 -21 -17 -23 -15 -2 2 -10 -1 -18 -8 -22 -18 -29 0 -11 30 11 18
27 28 47 30 20 2 38 14 55 37 15 19 39 40 54 47 38 19 38 62 0 66 -18 2 -29
-2 -30 -10 0 -7 -2 -18 -2 -24 -1 -6 -21 -33 -45 -60 -24 -27 -40 -40 -36 -29
14 37 35 119 35 137 0 10 7 18 15 18 43 0 119 53 230 160 214 206 321 280 605
418 118 57 222 121 258 157 14 13 -21 0 -108 -43z"/>
<path d="M2880 2466 c0 -2 8 -10 18 -17 15 -13 16 -12 3 4 -13 16 -21 21 -21
13z"/>
<path d="M3431 2406 c-8 -10 -9 -16 -1 -21 6 -4 9 -1 8 6 -2 6 3 14 11 17 8 3
11 0 7 -7 -5 -7 -1 -9 9 -4 13 5 14 7 3 14 -18 12 -24 11 -37 -5z"/>
<path d="M2727 2375 c-4 -8 -3 -16 1 -19 4 -3 9 4 9 15 2 23 -3 25 -10 4z"/>
<path d="M3085 2381 c-6 -11 13 -26 22 -17 4 3 0 6 -8 6 -11 0 -11 2 1 10 9 6
10 10 3 10 -6 0 -14 -4 -18 -9z"/>
<path d="M2973 2305 c0 -8 4 -12 9 -9 5 3 6 10 3 15 -9 13 -12 11 -12 -6z"/>
<path d="M2676 2288 c3 -5 10 -6 15 -3 13 9 11 12 -6 12 -8 0 -12 -4 -9 -9z"/>
<path d="M3574 2289 c-3 -6 -1 -16 5 -22 9 -9 10 -7 5 7 -6 15 -4 17 6 11 9
-5 11 -4 6 3 -9 15 -13 15 -22 1z"/>
<path d="M3203 2259 c9 -6 21 -8 26 -4 5 3 12 1 16 -5 3 -5 12 -10 18 -10 20
1 -26 24 -53 26 -21 3 -22 1 -7 -7z"/>
<path d="M3559 2257 c6 -8 7 -18 3 -22 -4 -5 -1 -5 6 -1 10 6 10 11 1 22 -6 8
-14 14 -16 14 -3 0 0 -6 6 -13z"/>
<path d="M3279 2213 c-13 -16 -12 -17 4 -4 16 13 21 21 13 21 -2 0 -10 -8 -17
-17z"/>
<path d="M3001 2176 c-9 -11 -9 -16 1 -22 7 -4 10 -4 6 1 -4 4 -3 14 3 22 6 7
9 13 6 13 -2 0 -10 -6 -16 -14z"/>
<path d="M3464 2168 c-6 -9 -6 -9 23 -12 12 -2 19 2 17 9 -6 13 -32 16 -40 3z"/>
<path d="M3642 2057 c-8 -10 -6 -13 7 -13 11 0 17 6 14 13 -3 7 -6 13 -8 13
-1 0 -7 -6 -13 -13z"/>
<path d="M3375 2040 c-3 -6 1 -7 9 -4 18 7 21 14 7 14 -6 0 -13 -4 -16 -10z"/>
<path d="M3445 2039 c-37 -10 -73 -42 -86 -76 -16 -42 -10 -46 19 -15 35 38
65 47 99 30 52 -25 56 -102 7 -135 -29 -18 -57 -19 -230 -8 -126 8 -186 0
-269 -35 -48 -21 -155 -101 -172 -129 -10 -16 -1 -13 45 14 127 75 248 96 411
71 179 -27 239 -21 294 32 40 37 57 74 57 120 0 88 -90 155 -175 131z m79 -21
c4 3 6 0 6 -6 0 -6 6 -9 14 -6 9 3 22 -13 40 -47 l26 -53 -25 -53 c-27 -56
-62 -82 -114 -86 -16 -1 -27 -6 -24 -11 3 -4 -7 -5 -23 -2 -16 3 -47 8 -69 11
-22 3 -51 8 -65 10 -62 12 -193 14 -235 5 -70 -16 -76 0 -9 21 50 16 80 18
199 13 228 -10 217 -11 258 26 47 42 52 61 30 102 -9 18 -16 37 -15 41 1 5 -2
6 -8 2 -5 -3 -10 -1 -10 4 0 6 -3 10 -7 9 -12 -2 -43 13 -43 22 0 4 16 4 34 0
19 -4 37 -5 40 -2z m-544 -258 c-18 -12 -30 -13 -30 -2 0 4 10 9 22 9 18 2 20
0 8 -7z"/>
<path d="M3098 1803 c7 -3 16 -2 19 1 4 3 -2 6 -13 5 -11 0 -14 -3 -6 -6z"/>
<path d="M3265 2011 c-3 -5 -2 -12 3 -15 5 -3 9 1 9 9 0 17 -3 19 -12 6z"/>
<path d="M3652 1984 c33 -55 30 -130 -8 -190 -63 -103 -174 -134 -344 -98
-177 37 -294 16 -460 -81 -231 -136 -366 -177 -509 -154 -30 5 -57 6 -60 4
-11 -12 96 -47 157 -52 107 -8 195 16 372 103 85 42 175 82 200 90 78 23 186
24 285 2 122 -26 223 -21 298 16 51 25 117 84 117 105 0 18 -41 -2 -67 -33
-14 -17 -30 -30 -35 -28 -5 1 -7 -2 -3 -7 3 -6 -6 -13 -20 -17 -13 -3 -23 -9
-21 -13 6 -8 -37 -14 -114 -14 -102 -1 -160 5 -154 14 7 12 -99 15 -253 8 -19
0 -30 -5 -27 -11 4 -6 -2 -8 -17 -3 -43 13 -44 24 -5 40 21 9 41 14 43 11 3
-3 14 -1 24 4 34 19 103 21 184 6 190 -36 250 -35 326 5 20 10 39 15 43 11 4
-4 6 0 4 8 -1 8 3 14 10 13 6 -2 11 3 10 10 -2 6 3 11 10 10 6 -2 12 2 12 8 0
5 4 8 9 5 5 -4 7 3 4 14 -3 11 2 26 11 35 9 9 14 20 11 25 -3 5 -1 11 4 15 6
3 8 12 5 20 -3 7 -1 22 4 31 7 13 9 -3 8 -56 -1 -47 -6 -75 -14 -78 -18 -6
-14 -21 5 -18 21 3 31 34 32 97 1 54 -17 103 -55 148 -35 42 -48 39 -22 -5z
m2 -289 c-9 -14 -19 -23 -22 -20 -5 4 26 45 35 45 2 0 -4 -11 -13 -25z m-688
-77 c5 -8 2 -9 -9 -5 -10 3 -17 2 -17 -4 0 -6 -8 -6 -21 1 -11 7 -23 9 -27 6
-3 -3 0 -6 6 -6 22 0 12 -15 -20 -35 -18 -11 -39 -18 -47 -17 -7 2 -10 -1 -6
-8 3 -6 3 -10 -2 -9 -16 4 -63 -13 -63 -23 0 -5 -4 -6 -10 -3 -5 3 -10 2 -10
-3 0 -6 -16 -13 -35 -16 -20 -4 -33 -11 -30 -16 4 -6 -1 -7 -11 -3 -11 4 -15
3 -10 -5 4 -7 -2 -9 -20 -6 -17 3 -23 1 -19 -7 5 -8 1 -9 -15 -4 -13 4 -20 3
-17 -2 3 -5 -2 -9 -11 -9 -9 0 -37 -3 -62 -7 -37 -5 -31 -1 30 18 41 14 83 25
93 25 11 0 15 4 11 12 -4 6 -3 8 3 5 13 -8 103 32 127 56 9 9 24 13 33 10 11
-4 14 -3 9 5 -10 16 6 15 24 0 12 -11 12 -10 1 5 -8 9 -12 18 -10 20 52 29 73
38 84 33 10 -3 12 0 8 11 -5 13 -3 14 15 4 11 -6 24 -16 28 -23z"/>
<path d="M3150 1936 c0 -2 7 -7 16 -10 8 -3 12 -2 9 4 -6 10 -25 14 -25 6z"/>
<path d="M2806 1717 c3 -10 9 -15 12 -12 3 3 0 11 -7 18 -10 9 -11 8 -5 -6z"/>
<path d="M3639 1594 c-26 -19 -75 -41 -112 -51 -70 -18 -93 -17 -305 22 -72
13 -92 13 -156 0 -73 -13 -158 -49 -205 -86 -15 -12 -18 -19 -9 -19 8 0 18 4
24 9 17 17 133 41 201 42 43 1 105 -9 168 -25 158 -41 251 -34 341 27 45 30
112 103 103 111 -2 2 -25 -12 -50 -30z m-408 -50 c6 -3 25 -8 42 -10 18 -3 43
-7 57 -11 58 -14 152 -19 169 -9 6 4 27 9 48 12 37 4 37 4 15 -11 -12 -9 -27
-13 -32 -10 -6 3 -10 1 -10 -5 0 -7 -8 -9 -21 -5 -13 5 -19 3 -15 -3 6 -10
-23 -26 -32 -17 -3 3 1 5 8 5 7 0 10 3 7 6 -4 4 -13 1 -22 -6 -10 -8 -27 -10
-52 -5 -27 5 -33 9 -22 16 9 5 10 9 2 9 -6 0 -15 -4 -18 -10 -3 -5 -14 -10
-23 -10 -15 0 -15 2 -2 11 12 9 12 10 -4 5 -15 -5 -93 10 -156 31 -8 3 -43 5
-78 6 -59 0 -72 10 -27 19 27 6 153 0 166 -8z"/>
<path d="M2246 1447 c3 -10 9 -15 12 -12 3 3 0 11 -7 18 -10 9 -11 8 -5 -6z"/>
<path d="M2800 1440 c-9 -6 -10 -10 -3 -10 6 0 15 5 18 10 8 12 4 12 -15 0z"/>
<path d="M2865 1440 c-3 -6 1 -7 9 -4 18 7 21 14 7 14 -6 0 -13 -4 -16 -10z"/>
<path d="M2550 1266 c-32 -39 23 -100 65 -72 27 18 32 56 9 73 -24 17 -59 17
-74 -1z m54 -12 c12 -4 13 -11 6 -24 -16 -29 -58 -16 -47 15 7 16 16 18 41 9z"/>
<path d="M2576 1242 c-3 -5 1 -9 9 -9 8 0 12 4 9 9 -3 4 -7 8 -9 8 -2 0 -6 -4
-9 -8z"/>
<path d="M2700 1060 l0 -200 40 0 40 0 0 200 0 200 -40 0 -40 0 0 -200z m60 3
c1 -147 -2 -173 -14 -173 -13 0 -16 27 -18 165 -2 91 -2 169 0 173 1 5 9 9 16
9 12 0 15 -33 16 -174z"/>
<path d="M2850 1060 l0 -200 45 0 45 0 0 200 0 200 -45 0 -45 0 0 -200z m53
170 c-3 -11 -1 -20 3 -20 5 0 8 -72 6 -160 -2 -129 -6 -160 -17 -160 -11 0
-15 30 -17 155 -2 89 1 155 6 155 5 0 6 3 3 6 -3 4 -2 15 4 25 13 25 18 24 12
-1z"/>
<path d="M3330 1060 l0 -200 43 0 42 0 0 200 0 200 -42 0 -43 0 0 -200z m55 8
c-2 -140 -5 -174 -16 -176 -12 -2 -14 25 -16 150 -1 104 2 157 10 167 9 12 9
13 0 7 -7 -4 -13 -3 -13 2 0 12 11 22 25 22 9 0 12 -43 10 -172z"/>
<path d="M1880 1238 c-186 -53 -186 -317 1 -377 20 -6 46 -23 59 -36 52 -55
145 -68 199 -26 l24 19 -19 25 c-18 22 -22 23 -39 11 -24 -17 -56 -18 -79 -1
-16 12 -14 14 18 30 50 23 88 86 94 151 8 98 -49 179 -143 205 -47 13 -68 13
-115 -1z m134 -32 c34 -14 100 -75 91 -84 -2 -2 0 -13 5 -23 7 -12 7 -20 0
-24 -6 -4 -7 -13 -1 -23 10 -19 -11 -94 -29 -100 -5 -2 -8 -7 -5 -11 2 -5 -13
-16 -33 -27 -21 -10 -43 -28 -49 -41 -6 -13 -7 -21 -2 -17 5 3 9 1 9 -3 0 -5
7 -18 16 -29 8 -10 13 -13 9 -7 -4 8 -1 11 9 7 8 -3 12 -12 9 -20 -4 -11 -10
-11 -35 2 -16 8 -38 23 -48 32 -38 35 -48 41 -56 34 -5 -4 -1 2 8 13 16 19 38
26 95 29 17 1 19 4 10 16 -6 8 -8 12 -3 8 4 -4 17 2 29 12 11 11 25 17 30 13
6 -3 7 -1 3 6 -4 6 -13 8 -19 4 -7 -3 -5 2 4 13 18 22 25 109 10 119 -6 3 -8
11 -5 17 4 7 2 8 -4 4 -7 -4 -13 -2 -13 3 -2 12 -5 26 -9 39 -1 4 -2 10 -2 13
1 3 -10 4 -23 1 -14 -2 -25 0 -25 6 0 6 -22 10 -52 9 -46 -2 -58 -7 -94 -40
-22 -20 -41 -43 -41 -50 -1 -6 -2 -25 -3 -42 -2 -16 1 -39 5 -50 l8 -20 -17
20 c-17 20 -17 20 -6 -3 6 -12 8 -28 4 -35 -5 -8 -2 -7 9 2 9 7 17 9 17 4 0
-5 10 -20 23 -33 12 -14 21 -28 19 -33 -1 -5 2 -6 8 -2 16 10 54 -5 42 -17
-13 -13 -85 -1 -77 13 4 5 1 9 -6 9 -19 0 -58 52 -51 68 3 8 1 13 -4 10 -11
-7 -9 71 4 122 6 25 13 35 27 35 14 0 19 6 17 19 -3 14 1 17 14 12 10 -4 15
-4 11 0 -13 13 33 31 84 33 27 1 64 -5 83 -13z m2 -70 c30 -30 34 -40 34 -86
0 -46 -4 -56 -34 -86 -44 -44 -99 -47 -145 -8 -85 72 -41 214 66 214 38 0 51
-6 79 -34z m78 -325 c3 -5 -4 -11 -16 -14 -25 -7 -33 -3 -23 12 8 13 32 14 39
2z"/>
<path d="M2079 1137 c6 -8 7 -18 3 -22 -4 -5 -1 -5 6 -1 10 6 10 11 1 22 -6 8
-14 14 -16 14 -3 0 0 -6 6 -13z"/>
<path d="M1896 1002 c-3 -5 1 -9 9 -9 8 0 12 4 9 9 -3 4 -7 8 -9 8 -2 0 -6 -4
-9 -8z"/>
<path d="M3010 1050 l0 -190 43 0 43 0 -4 70 -4 70 86 0 86 0 0 35 0 35 -82 0
-83 0 -2 50 -2 50 94 0 95 0 0 35 0 35 -135 0 -135 0 0 -190z m250 158 c0 -9
-23 -14 -76 -16 -98 -3 -114 -12 -110 -57 1 -19 -1 -35 -6 -35 -12 0 -5 -23
12 -37 8 -7 45 -13 83 -13 50 0 68 -3 65 -12 -3 -8 -28 -14 -69 -15 -35 -1
-70 -2 -76 -2 -7 -1 -12 -4 -12 -8 1 -5 1 -34 0 -65 -1 -44 -5 -58 -16 -58 -9
0 -15 9 -16 23 0 12 -2 33 -5 46 -2 13 1 29 6 36 7 9 8 15 1 19 -8 5 -9 75 -1
199 0 4 50 7 110 7 81 0 110 -3 110 -12z"/>
<path d="M1765 1221 c-3 -5 -2 -12 3 -15 5 -3 9 1 9 9 0 17 -3 19 -12 6z"/>
<path d="M1695 1179 c-11 -16 -1 -19 13 -3 7 8 8 14 3 14 -5 0 -13 -5 -16 -11z"/>
<path d="M2190 1068 c1 -158 29 -208 118 -208 27 0 57 7 70 16 20 14 22 14 22
0 0 -12 10 -16 40 -16 l40 0 0 145 0 145 -40 0 -40 0 0 -80 c0 -43 -5 -91 -12
-105 -14 -30 -50 -42 -84 -26 -23 10 -24 14 -24 111 l0 100 -45 0 -45 0 0 -82z
m61 -22 c0 -109 1 -114 19 -108 11 4 12 2 4 -8 -7 -7 -21 -9 -32 -6 -19 6 -21
15 -21 100 -1 75 2 93 14 93 12 0 15 -16 16 -71z m199 -41 c0 -96 -3 -115 -15
-115 -8 0 -15 4 -15 8 0 4 -11 9 -26 10 -14 1 -23 -2 -20 -6 5 -9 -1 -10 -49
-13 -13 -1 -22 -6 -19 -11 4 -6 -2 -5 -12 1 -11 5 -28 13 -39 16 l-20 7 20 8
c30 13 47 12 39 -2 -5 -10 -4 -10 6 -1 10 9 18 9 34 1 15 -8 21 -8 24 1 2 6 9
11 16 11 30 0 46 40 46 113 0 41 3 77 7 80 18 19 23 -3 23 -108z"/>
<path d="M2548 1005 l-3 -145 43 0 42 0 0 145 0 145 -39 0 -40 0 -3 -145z m62
-1 c0 -107 -1 -114 -20 -114 -19 0 -20 7 -20 113 0 106 1 113 20 114 19 2 20
-4 20 -113z"/>
<path d="M3540 1132 c-24 -11 -43 -32 -59 -65 -21 -43 -22 -52 -11 -95 19 -78
65 -112 151 -112 98 0 156 63 147 159 -10 107 -126 165 -228 113z m128 -11
c18 0 31 -5 28 -9 -3 -5 6 -19 19 -30 13 -12 27 -33 31 -48 9 -34 -7 -96 -25
-102 -9 -3 -11 0 -6 8 5 9 4 11 -3 6 -8 -5 -12 1 -12 14 0 13 4 19 12 14 8 -5
9 2 5 23 -3 18 -1 35 6 43 8 9 8 11 1 7 -16 -9 -38 19 -28 35 4 7 -1 6 -10 -3
-14 -13 -15 -20 -5 -42 24 -52 -10 -107 -66 -107 -58 0 -86 75 -49 129 14 20
23 23 60 18 24 -2 44 -1 44 4 0 12 -39 31 -50 24 -6 -3 -10 0 -10 7 -1 9 -5 7
-14 -4 -7 -10 -16 -15 -20 -11 -3 4 -13 -2 -22 -13 -8 -10 -12 -12 -8 -4 4 8
4 12 0 8 -4 -3 -8 -10 -8 -15 0 -4 -5 -14 -11 -22 -10 -12 -9 -13 3 -6 13 7
13 6 2 -7 -8 -10 -11 -33 -8 -62 4 -36 1 -46 -10 -46 -8 0 -12 5 -9 10 3 6 2
10 -2 10 -5 0 -9 25 -9 55 -1 30 3 52 8 49 4 -3 8 4 8 16 0 27 53 59 94 56 17
-2 46 -4 64 -5z m38 -204 c3 -22 -52 -39 -102 -32 -22 3 -44 6 -49 7 -6 1 -17
7 -23 15 -11 11 -10 14 4 20 10 4 21 0 28 -9 7 -9 28 -14 63 -14 28 1 51 3 51
6 -2 33 23 40 28 7z"/>
<path d="M3780 1148 c1 -2 23 -66 49 -143 l48 -140 43 0 43 0 26 82 c14 46 28
83 31 83 3 0 17 -37 32 -82 l25 -83 43 0 43 0 48 135 c27 74 49 138 49 143 0
4 -17 7 -38 7 l-38 0 -27 -87 c-15 -49 -27 -93 -27 -100 0 -7 -6 -10 -14 -7
-8 3 -12 12 -9 19 2 8 -8 51 -23 95 l-27 81 -35 -3 c-33 -3 -37 -7 -55 -58
-10 -30 -24 -75 -31 -100 l-12 -44 -32 102 -33 102 -39 0 c-22 0 -40 -1 -40
-2z m80 -70 c7 -24 14 -52 14 -63 0 -11 11 -32 25 -48 23 -26 25 -26 43 -10
10 9 16 23 14 30 -3 7 -1 13 5 13 5 0 9 6 8 13 -1 6 5 28 14 47 9 19 16 29 17
21 0 -8 3 -11 6 -8 4 4 1 13 -6 22 -7 8 -11 15 -9 16 51 11 56 9 64 -23 5 -18
9 -38 9 -45 1 -7 7 -18 14 -25 6 -6 12 -22 12 -35 0 -33 32 -47 53 -22 9 10
17 26 17 35 0 8 5 25 12 37 6 12 14 35 18 52 3 17 13 31 23 33 17 3 17 1 2
-35 -9 -21 -18 -47 -21 -58 -6 -33 -26 -75 -33 -71 -3 2 -6 -10 -6 -27 0 -27
-4 -32 -27 -35 -23 -3 -30 3 -47 42 -12 25 -21 51 -21 59 0 7 -9 23 -19 34
-11 12 -19 22 -18 24 1 2 -6 -3 -15 -13 -9 -9 -20 -28 -24 -42 -3 -15 -10 -29
-15 -31 -4 -3 -5 -13 -2 -22 4 -10 2 -14 -5 -9 -6 4 -12 -4 -14 -21 -2 -19 -9
-27 -25 -28 -23 -2 -38 19 -26 37 3 6 1 8 -4 5 -7 -4 -21 25 -37 76 -15 45
-31 90 -36 100 -8 13 -6 17 8 17 13 0 23 -13 32 -42z"/>
<path d="M4281 1064 c0 -11 3 -14 6 -6 3 7 2 16 -1 19 -3 4 -6 -2 -5 -13z"/>
<path d="M2134 906 c1 -8 5 -18 8 -22 4 -3 5 1 4 10 -1 8 -5 18 -8 22 -4 3 -5
-1 -4 -10z"/>
<path d="M3445 901 c-2 -5 3 -15 12 -22 9 -8 14 -9 10 -2 -4 6 -2 13 5 15 8 3
6 7 -5 11 -9 3 -19 2 -22 -2z"/>
<path d="M2816 843 c-6 -14 -5 -15 5 -6 7 7 10 15 7 18 -3 3 -9 -2 -12 -12z"/>
<path d="M1843 835 c0 -8 4 -12 9 -9 5 3 6 10 3 15 -9 13 -12 11 -12 -6z"/>
<path d="M2946 828 c3 -5 10 -6 15 -3 13 9 11 12 -6 12 -8 0 -12 -4 -9 -9z"/>
<path d="M3995 819 c-4 -6 -5 -12 -2 -15 2 -3 7 2 10 11 7 17 1 20 -8 4z"/>
<path d="M2425 699 c-4 -6 -5 -12 -2 -15 2 -3 7 2 10 11 7 17 1 20 -8 4z"/>
<path d="M3495 701 c-3 -5 -2 -12 3 -15 5 -3 9 1 9 9 0 17 -3 19 -12 6z"/>
<path d="M3808 692 c4 -11 7 -12 10 -4 3 10 7 10 20 0 14 -10 15 -10 5 2 -18
20 -43 22 -35 2z"/>
<path d="M3915 701 c-3 -5 -18 -7 -32 -5 -15 3 -25 4 -23 2 3 -2 12 -9 21 -16
13 -10 19 -8 34 8 10 11 15 20 12 20 -3 0 -8 -4 -12 -9z"/>
<path d="M2175 690 c-3 -5 1 -10 9 -10 9 0 16 5 16 10 0 6 -4 10 -9 10 -6 0
-13 -4 -16 -10z"/>
<path d="M2280 690 c0 -5 5 -10 10 -10 6 0 10 5 10 10 0 6 -4 10 -10 10 -5 0
-10 -4 -10 -10z"/>
<path d="M2782 677 c4 -20 1 -23 -19 -19 -27 5 -53 -13 -53 -37 0 -30 19 -45
54 -46 l36 -2 0 64 c0 40 -4 63 -11 63 -6 0 -9 -10 -7 -23z m-4 -60 c3 -22 -1
-27 -18 -27 -23 0 -35 22 -26 46 10 25 41 12 44 -19z"/>
<path d="M1953 631 c12 -34 25 -61 29 -61 4 0 14 21 21 47 15 50 18 49 36 -9
7 -21 16 -38 20 -38 7 0 41 96 41 115 0 18 -18 -12 -30 -50 l-13 -40 -14 48
c-7 26 -18 47 -23 47 -5 0 -16 -21 -23 -47 l-14 -47 -15 44 c-8 24 -19 45 -26
48 -7 2 -2 -21 11 -57z"/>
<path d="M2585 668 l-20 -21 23 12 c12 6 22 16 22 21 0 13 -2 12 -25 -12z"/>
<path d="M2670 630 c0 -33 4 -60 10 -60 6 0 10 27 10 60 0 33 -4 60 -10 60 -6
0 -10 -27 -10 -60z"/>
<path d="M3223 630 c-1 -33 3 -60 8 -60 5 0 9 19 9 43 l0 42 19 -28 c10 -16
22 -29 26 -29 4 0 16 13 26 29 l19 28 0 -44 c0 -24 3 -42 6 -38 9 8 11 117 2
117 -4 0 -17 -18 -30 -39 l-24 -39 -22 39 c-12 21 -26 39 -30 39 -4 0 -8 -27
-9 -60z"/>
<path d="M2218 669 c-2 -5 -2 -28 0 -49 4 -40 26 -60 46 -40 7 7 5 10 -7 10
-12 0 -17 8 -17 30 0 17 5 30 11 30 6 0 4 7 -5 15 -17 18 -23 19 -28 4z"/>
<path d="M3097 673 c-3 -5 8 -8 25 -9 20 -1 25 2 16 7 -16 11 -35 11 -41 2z"/>
<path d="M4012 665 c-7 -9 -8 -15 -2 -15 5 0 10 -15 10 -34 0 -38 12 -51 38
-41 15 7 15 8 -2 14 -25 9 -31 58 -8 64 15 4 15 5 -1 6 -10 0 -15 6 -12 11 9
15 -8 11 -23 -5z"/>
<path d="M2112 614 c-2 -26 2 -44 8 -44 5 0 10 16 10 35 0 21 6 37 17 43 13 8
12 9 -8 9 -21 0 -24 -5 -27 -43z"/>
<path d="M2183 615 c0 -27 2 -38 4 -22 2 15 2 37 0 50 -2 12 -4 0 -4 -28z"/>
<path d="M2280 615 c0 -25 5 -45 10 -45 6 0 10 20 10 45 0 25 -4 45 -10 45 -5
0 -10 -20 -10 -45z"/>
<path d="M2330 611 c4 -39 5 -41 8 -14 6 62 52 69 52 7 0 -19 5 -34 10 -34 15
0 12 66 -3 78 -7 6 -26 10 -42 10 -30 -1 -30 -2 -25 -47z"/>
<path d="M2430 640 c-17 -32 4 -63 41 -58 18 3 28 1 26 -6 -2 -6 -18 -11 -35
-11 -38 0 -42 -12 -7 -21 38 -9 55 11 55 65 0 46 0 47 -34 49 -26 2 -38 -2
-46 -18z m60 -5 c10 -12 10 -18 0 -30 -25 -30 -61 -7 -46 30 3 8 12 15 19 15
8 0 20 -7 27 -15z"/>
<path d="M2830 645 c-28 -33 12 -85 54 -69 28 11 18 24 -14 18 -19 -4 -30 -2
-30 5 0 6 14 11 30 11 31 0 35 6 24 34 -8 20 -48 21 -64 1z m50 -4 c0 -5 -9
-11 -20 -14 -20 -5 -26 3 -13 16 9 10 33 8 33 -2z"/>
<path d="M2915 651 c-3 -6 7 -9 22 -8 24 2 28 -2 31 -25 3 -23 -1 -28 -17 -28
-12 0 -21 5 -21 10 0 6 7 10 15 10 8 0 15 5 15 10 0 15 -26 12 -40 -5 -18 -22
4 -45 41 -42 24 2 29 6 29 29 0 43 -10 58 -40 58 -16 0 -31 -4 -35 -9z"/>
<path d="M3014 645 c-8 -20 4 -35 27 -35 10 0 19 -4 19 -10 0 -5 -15 -10 -32
-10 -29 -1 -31 -2 -14 -11 13 -8 25 -8 42 0 32 14 30 30 -6 42 -32 12 -31 34
1 24 11 -4 19 -2 19 4 0 17 -50 13 -56 -4z"/>
<path d="M3377 654 c-15 -15 -7 -63 13 -74 33 -17 62 4 58 43 -3 27 -7 32 -33
35 -17 2 -34 0 -38 -4z m58 -24 c8 -25 -1 -40 -25 -40 -22 0 -34 28 -19 46 16
20 37 17 44 -6z"/>
<path d="M3462 653 c2 -5 10 -25 18 -45 8 -21 17 -38 20 -38 3 0 15 20 27 45
11 25 16 45 11 45 -5 0 -15 -15 -23 -32 l-14 -33 -13 33 c-7 17 -16 32 -21 32
-5 0 -7 -3 -5 -7z"/>
<path d="M3561 646 c-29 -34 11 -86 53 -70 27 10 18 21 -14 16 -18 -3 -30 0
-30 7 0 6 14 11 31 11 26 0 30 3 27 23 -4 27 -48 36 -67 13z m56 -11 c2 -5 -8
-10 -22 -10 -25 0 -31 6 -18 19 9 9 36 3 40 -9z"/>
<path d="M3650 615 c0 -54 18 -60 22 -8 2 27 8 39 21 41 14 3 17 -4 17 -37 0
-51 18 -54 22 -4 2 27 8 39 21 41 13 3 17 -4 17 -32 0 -19 5 -38 11 -41 7 -5
9 8 7 37 l-3 43 -67 3 -68 2 0 -45z"/>
<path d="M3822 648 c-32 -32 4 -87 48 -73 31 10 23 25 -9 19 -16 -4 -32 -1
-35 5 -5 7 5 11 29 11 32 0 36 3 33 23 -3 25 -45 36 -66 15z m53 -8 c3 -5 0
-10 -9 -10 -8 0 -23 -3 -33 -7 -16 -6 -16 -5 -4 10 15 19 37 22 46 7z"/>
<path d="M3910 618 c0 -24 -6 -50 -12 -57 -10 -11 -8 -10 10 0 16 10 22 23 22
47 0 21 6 35 16 39 20 8 36 -15 31 -45 -3 -12 0 -25 5 -28 5 -4 8 13 6 38 -3
42 -4 43 -40 46 l-38 3 0 -43z"/>
<path d="M2582 626 c1 -10 8 -17 13 -17 15 1 12 24 -3 29 -9 3 -13 -2 -10 -12z"/>
<path d="M3135 630 c-8 -13 4 -32 16 -25 12 8 12 35 0 35 -6 0 -13 -4 -16 -10z"/>
<path d="M3088 568 c5 -5 16 -8 23 -6 8 3 3 7 -10 11 -17 4 -21 3 -13 -5z"/>
<path d="M3176 558 c3 -5 10 -6 15 -3 13 9 11 12 -6 12 -8 0 -12 -4 -9 -9z"/>
<path d="M3256 562 c-3 -5 1 -9 9 -9 8 0 12 4 9 9 -3 4 -7 8 -9 8 -2 0 -6 -4
-9 -8z"/>
</g>
</svg>
