<svg width="220" height="45" viewBox="0 0 220 45" fill="none" xmlns="http://www.w3.org/2000/svg">
<path d="M30 0.0346414H32.9935V11.7276L43.3766 0.0432901L44.7763 0L34.1703 12.0635L47.5036 26.4539H44.7475L32.9935 14.026V26.4539H30V0.0346414Z" fill="#F9F9F9"/>
<path d="M74.3146 0.822479L83.6874 26.4539H80.8946L78.2828 20.151H66.4259L63.5209 26.4539H62.2736L73.3333 0.822479H74.3146ZM66.5801 19.2352H77.951L72.785 5.16592L66.5801 19.2352Z" fill="#F9F9F9"/>
<path d="M146.003 0.822479L155.376 26.4539H152.583L149.971 20.151H138.114L135.209 26.4539H133.962L145.021 0.822479H146.003ZM138.268 19.2352H149.639L144.473 5.16592L138.268 19.2352Z" fill="#F9F9F9"/>
<path d="M190 0.0344391V1.11712H179.201V26.4536H175.988V1.11712H166.416V0.0344391H190Z" fill="#F9F9F9"/>
<path d="M118.413 25.6708C118.413 25.6708 116.378 23.8526 114.95 18.8309C114.115 15.8959 111.371 14.3323 109.083 13.822L110.536 13.7362C111.487 13.5154 112.609 13.1904 113.406 12.7672C114.204 12.344 114.884 11.8473 115.461 11.2708C116.031 10.7004 116.473 10.0565 116.785 9.34509C117.098 8.62751 117.258 7.86092 117.258 7.04528C117.258 6.04561 117.055 5.12571 116.65 4.27941C116.252 3.43306 115.651 2.70328 114.847 2.09001C114.044 1.48288 113.038 1.00449 111.842 0.661049C110.646 0.323758 110.174 0.152039 108.586 0.152039H101.079V26.5721H103.894V14.1409L105.919 14.0186C105.934 14.0228 105.945 14.0258 105.945 14.0258C105.945 14.0258 110.577 14.1124 112.266 19.3072C113.954 24.502 115.685 26.3202 119.019 26.2769C119.019 25.7141 118.413 25.6708 118.413 25.6708ZM103.778 13.4173V1.08428H108.255C109.193 1.08428 110.052 1.23145 110.837 1.53198C111.622 1.83251 112.296 2.24956 112.854 2.78308C113.419 3.31049 113.86 3.94827 114.173 4.67809C114.486 5.41403 114.645 6.21742 114.645 7.10057C114.645 8.06957 114.449 8.94038 114.044 9.72541C113.645 10.5043 113.094 11.1727 112.382 11.7247C111.677 12.2705 110.837 12.6937 109.868 12.9819C108.893 13.2763 107.838 13.4173 106.697 13.4173H103.778Z" fill="#F9F9F9"/>
<path d="M38.1966 44.7768C37.8982 44.6427 37.6641 44.4565 37.4944 44.2183C37.3247 43.9802 37.237 43.705 37.2316 43.3929H38.0282C38.0556 43.6613 38.1665 43.8871 38.3609 44.0705C38.5551 44.254 38.8385 44.3456 39.2109 44.3456C39.5668 44.3456 39.8474 44.2566 40.0527 44.0787C40.258 43.9008 40.3607 43.6722 40.3607 43.3929C40.3607 43.174 40.3004 42.996 40.18 42.8591C40.0595 42.7223 39.9089 42.6182 39.7283 42.547C39.5476 42.4759 39.3039 42.3992 38.9974 42.3171C38.6196 42.2185 38.317 42.12 38.0899 42.0215C37.8626 41.9229 37.6682 41.7683 37.5068 41.5574C37.3452 41.3467 37.2645 41.0634 37.2645 40.7074C37.2645 40.3953 37.3438 40.1189 37.5026 39.8779C37.6614 39.6371 37.8845 39.4509 38.172 39.3195C38.4594 39.1881 38.7892 39.1224 39.1616 39.1224C39.6982 39.1224 40.1375 39.2566 40.4798 39.5248C40.8219 39.7931 41.0149 40.149 41.0588 40.5925H40.2375C40.21 40.3735 40.0951 40.1806 39.8926 40.0135C39.6899 39.8465 39.4216 39.763 39.0877 39.763C38.7757 39.763 38.521 39.8438 38.3239 40.0053C38.1268 40.1668 38.0282 40.3927 38.0282 40.6828C38.0282 40.8909 38.087 41.0606 38.2048 41.192C38.3225 41.3234 38.4676 41.4234 38.6401 41.4918C38.8125 41.5603 39.0548 41.6383 39.367 41.7258C39.7448 41.8299 40.0486 41.9325 40.2786 42.0338C40.5085 42.1352 40.7056 42.2912 40.8699 42.502C41.0341 42.7128 41.1163 42.9989 41.1163 43.3602C41.1163 43.6394 41.0424 43.9023 40.8945 44.1487C40.7467 44.395 40.5277 44.595 40.2375 44.7482C39.9473 44.9015 39.6052 44.9782 39.2109 44.9782C38.8331 44.978 38.495 44.911 38.1966 44.7768Z" fill="#F9F9F9"/>
<path d="M50.0762 42.9496H46.479C46.5063 43.393 46.6583 43.7394 46.9348 43.9884C47.2112 44.2377 47.5467 44.3621 47.9409 44.3621C48.2639 44.3621 48.5335 44.2869 48.7498 44.1362C48.9661 43.9857 49.118 43.7845 49.2056 43.5326H50.0105C49.89 43.9652 49.6491 44.3169 49.2877 44.5879C48.9264 44.859 48.4774 44.9945 47.9409 44.9945C47.5138 44.9945 47.1319 44.8987 46.7952 44.707C46.4585 44.5154 46.1942 44.243 46.0027 43.8899C45.811 43.5367 45.7152 43.1275 45.7152 42.662C45.7152 42.1968 45.8083 41.7888 45.9945 41.4383C46.1805 41.088 46.4421 40.8183 46.7788 40.6294C47.1155 40.4405 47.5028 40.346 47.9409 40.346C48.368 40.346 48.7457 40.4392 49.0742 40.6252C49.4027 40.8115 49.6559 41.0675 49.8339 41.3931C50.0118 41.7189 50.1008 42.0871 50.1008 42.4977C50.1009 42.6403 50.0926 42.7908 50.0762 42.9496ZM49.1399 41.6068C49.0139 41.4015 48.8429 41.2454 48.6266 41.1386C48.4103 41.0318 48.1708 40.9785 47.908 40.9785C47.5303 40.9785 47.2086 41.099 46.9431 41.3398C46.6774 41.5808 46.5255 41.9147 46.4872 42.3418H49.3289C49.3289 42.0572 49.2658 41.8121 49.1399 41.6068Z" fill="#F9F9F9"/>
<path d="M54.8644 41.4424C55.0504 41.0948 55.3091 40.8252 55.6405 40.6335C55.9717 40.4419 56.3509 40.346 56.7779 40.346C57.3309 40.346 57.7867 40.4803 58.1454 40.7485C58.5039 41.0168 58.7408 41.389 58.8558 41.8654H58.0509C57.9742 41.5917 57.8251 41.3755 57.6033 41.2166C57.3816 41.0578 57.1064 40.9784 56.7779 40.9784C56.3509 40.9784 56.006 41.125 55.7432 41.4178C55.4804 41.7108 55.3489 42.1255 55.3489 42.662C55.3489 43.2041 55.4804 43.623 55.7432 43.9186C56.006 44.2143 56.3509 44.3621 56.7779 44.3621C57.1064 44.3621 57.3802 44.2855 57.5992 44.1321C57.8181 43.9789 57.9688 43.7599 58.0509 43.4751H58.8557C58.7352 43.935 58.4944 44.3033 58.133 44.5797C57.7717 44.8562 57.3199 44.9945 56.7779 44.9945C56.3508 44.9945 55.9716 44.8987 55.6404 44.707C55.3091 44.5154 55.0504 44.2444 54.8643 43.894C54.6781 43.5436 54.5851 43.133 54.5851 42.662C54.5851 42.1967 54.6782 41.7902 54.8644 41.4424Z" fill="#F9F9F9"/>
<path d="M67.6186 40.4199V44.9205H66.8712V44.2553C66.7288 44.4852 66.5304 44.6646 66.2758 44.7932C66.0212 44.9218 65.7406 44.9862 65.434 44.9862C65.0835 44.9862 64.7688 44.9137 64.4895 44.7686C64.2103 44.6236 63.9898 44.4059 63.8284 44.1156C63.6668 43.8255 63.5861 43.4724 63.5861 43.0562V40.4199H64.3253V42.9577C64.3253 43.4011 64.4375 43.742 64.662 43.9801C64.8864 44.2183 65.1929 44.3374 65.5818 44.3374C65.9814 44.3374 66.2963 44.2142 66.5262 43.9678C66.7562 43.7215 66.8712 43.3629 66.8712 42.8919V40.4199H67.6186Z" fill="#F9F9F9"/>
<path d="M73.9712 40.5513C74.2148 40.409 74.5119 40.3378 74.8623 40.3378V41.1098H74.6652C73.8275 41.1098 73.4087 41.5643 73.4087 42.4731V44.9205H72.6613V40.4199H73.4087V41.1509C73.5401 40.8935 73.7275 40.6937 73.9712 40.5513Z" fill="#F9F9F9"/>
<path d="M83.5839 42.9496H79.9868C80.0141 43.393 80.1661 43.7394 80.4426 43.9884C80.719 44.2377 81.0545 44.3621 81.4487 44.3621C81.7717 44.3621 82.0413 44.2869 82.2576 44.1362C82.4739 43.9857 82.6258 43.7845 82.7134 43.5326H83.5183C83.3978 43.9652 83.1569 44.3169 82.7955 44.5879C82.4342 44.859 81.9852 44.9945 81.4486 44.9945C81.0216 44.9945 80.6397 44.8987 80.303 44.707C79.9663 44.5154 79.702 44.243 79.5105 43.8899C79.3188 43.5367 79.223 43.1275 79.223 42.662C79.223 42.1968 79.3161 41.7888 79.5023 41.4383C79.6883 41.088 79.9499 40.8183 80.2866 40.6294C80.6233 40.4405 81.0106 40.346 81.4487 40.346C81.8757 40.346 82.2535 40.4392 82.582 40.6252C82.9105 40.8115 83.1637 41.0675 83.3417 41.3931C83.5195 41.7189 83.6086 42.0871 83.6086 42.4977C83.6086 42.6403 83.6004 42.7908 83.5839 42.9496ZM82.6477 41.6068C82.5217 41.4015 82.3507 41.2454 82.1344 41.1386C81.9181 41.0318 81.6786 40.9785 81.4158 40.9785C81.038 40.9785 80.7164 41.099 80.4509 41.3398C80.1852 41.5808 80.0333 41.9147 79.995 42.3418H82.8367C82.8366 42.0572 82.7736 41.8121 82.6477 41.6068Z" fill="#F9F9F9"/>
<path d="M88.2486 44.8219C88.1501 44.7233 88.1008 44.6029 88.1008 44.4605C88.1008 44.3182 88.1501 44.1977 88.2486 44.0992C88.3472 44.0006 88.4676 43.9513 88.61 43.9513C88.7468 43.9513 88.8632 44.0006 88.959 44.0992C89.0547 44.1977 89.1027 44.3182 89.1027 44.4605C89.1027 44.6029 89.0547 44.7233 88.959 44.8219C88.8631 44.9204 88.7468 44.9697 88.61 44.9697C88.4676 44.9697 88.3473 44.9204 88.2486 44.8219Z" fill="#F9F9F9"/>
<path d="M94.6752 44.7768C94.3767 44.6427 94.1426 44.4565 93.973 44.2183C93.8032 43.9802 93.7156 43.705 93.7102 43.3929H94.5068C94.5342 43.6613 94.645 43.8871 94.8394 44.0705C95.0337 44.254 95.3171 44.3456 95.6895 44.3456C96.0453 44.3456 96.326 44.2566 96.5313 44.0787C96.7366 43.9008 96.8392 43.6722 96.8392 43.3929C96.8392 43.174 96.7789 42.996 96.6586 42.8591C96.5381 42.7223 96.3875 42.6182 96.2069 42.547C96.0262 42.4759 95.7825 42.3992 95.4759 42.3171C95.0982 42.2185 94.7956 42.12 94.5685 42.0215C94.3412 41.9229 94.1468 41.7683 93.9853 41.5574C93.8237 41.3467 93.7431 41.0634 93.7431 40.7074C93.7431 40.3953 93.8224 40.1189 93.9812 39.8779C94.14 39.6371 94.3631 39.4509 94.6505 39.3195C94.938 39.1881 95.2678 39.1224 95.6402 39.1224C96.1767 39.1224 96.6161 39.2566 96.9583 39.5248C97.3005 39.7931 97.4935 40.149 97.5373 40.5925H96.7161C96.6886 40.3735 96.5736 40.1806 96.3711 40.0135C96.1685 39.8465 95.9002 39.763 95.5663 39.763C95.2542 39.763 94.9996 39.8438 94.8025 40.0053C94.6054 40.1668 94.5068 40.3927 94.5068 40.6828C94.5068 40.8909 94.5656 41.0606 94.6834 41.192C94.8011 41.3234 94.9462 41.4234 95.1187 41.4918C95.2911 41.5603 95.5334 41.6383 95.8455 41.7258C96.2233 41.8299 96.5272 41.9325 96.7571 42.0338C96.9871 42.1352 97.1842 42.2912 97.3484 42.502C97.5127 42.7128 97.5948 42.9989 97.5948 43.3602C97.5948 43.6394 97.5209 43.9023 97.3731 44.1487C97.2253 44.395 97.0062 44.595 96.7161 44.7482C96.4258 44.9015 96.0837 44.9782 95.6895 44.9782C95.3116 44.978 94.9735 44.911 94.6752 44.7768Z" fill="#F9F9F9"/>
<path d="M102.473 41.4424C102.659 41.0948 102.915 40.8252 103.241 40.6335C103.567 40.4419 103.929 40.346 104.329 40.346C104.723 40.346 105.065 40.431 105.356 40.6006C105.646 40.7704 105.862 40.9839 106.004 41.2412V40.4199H106.76V44.9205H106.004V44.0828C105.857 44.3456 105.636 44.5633 105.343 44.7357C105.05 44.9082 104.71 44.9944 104.321 44.9944C103.921 44.9944 103.56 44.8959 103.237 44.6988C102.914 44.5017 102.659 44.2253 102.473 43.8693C102.287 43.5135 102.194 43.1083 102.194 42.6538C102.194 42.1939 102.287 41.7902 102.473 41.4424ZM105.799 41.775C105.662 41.5233 105.477 41.3303 105.245 41.196C105.012 41.0619 104.756 40.9948 104.477 40.9948C104.198 40.9948 103.943 41.0605 103.713 41.1919C103.483 41.3233 103.3 41.515 103.163 41.7668C103.026 42.0187 102.958 42.3144 102.958 42.6538C102.958 42.9987 103.026 43.2985 103.163 43.5531C103.3 43.8076 103.483 44.0021 103.713 44.1362C103.943 44.2704 104.198 44.3374 104.477 44.3374C104.756 44.3374 105.012 44.2704 105.245 44.1362C105.477 44.002 105.662 43.8076 105.799 43.5531C105.936 43.2985 106.004 43.0015 106.004 42.662C106.004 42.3226 105.936 42.0269 105.799 41.775Z" fill="#F9F9F9"/>
<path d="M113.478 44.2306L114.874 40.4199H115.671L113.905 44.9205H113.035L111.269 40.4199H112.074L113.478 44.2306Z" fill="#F9F9F9"/>
<path d="M124.27 42.9496H120.672C120.7 43.393 120.852 43.7394 121.128 43.9884C121.405 44.2377 121.74 44.3621 122.134 44.3621C122.457 44.3621 122.727 44.2869 122.943 44.1362C123.159 43.9857 123.311 43.7845 123.399 43.5326H124.204C124.083 43.9652 123.843 44.3169 123.481 44.5879C123.12 44.859 122.671 44.9945 122.134 44.9945C121.707 44.9945 121.325 44.8987 120.989 44.707C120.652 44.5154 120.388 44.243 120.196 43.8899C120.004 43.5367 119.909 43.1275 119.909 42.662C119.909 42.1968 120.002 41.7888 120.188 41.4383C120.374 41.088 120.635 40.8183 120.972 40.6294C121.309 40.4405 121.696 40.346 122.134 40.346C122.561 40.346 122.939 40.4392 123.268 40.6252C123.596 40.8115 123.849 41.0675 124.027 41.3931C124.205 41.7189 124.294 42.0871 124.294 42.4977C124.294 42.6403 124.286 42.7908 124.27 42.9496ZM123.333 41.6068C123.207 41.4015 123.036 41.2454 122.82 41.1386C122.604 41.0318 122.364 40.9785 122.101 40.9785C121.724 40.9785 121.402 41.099 121.136 41.3398C120.871 41.5808 120.719 41.9147 120.681 42.3418H123.522C123.522 42.0572 123.459 41.8121 123.333 41.6068Z" fill="#F9F9F9"/>
<path d="M128.934 44.8219C128.836 44.7233 128.786 44.6029 128.786 44.4605C128.786 44.3182 128.836 44.1977 128.934 44.0992C129.033 44.0006 129.153 43.9513 129.296 43.9513C129.432 43.9513 129.549 44.0006 129.645 44.0992C129.74 44.1977 129.788 44.3182 129.788 44.4605C129.788 44.6029 129.74 44.7233 129.645 44.8219C129.549 44.9204 129.432 44.9697 129.296 44.9697C129.153 44.9697 129.033 44.9204 128.934 44.8219Z" fill="#F9F9F9"/>
<path d="M141.278 39.1963V44.9205H140.531V39.1963H141.278Z" fill="#F9F9F9"/>
<path d="M149.852 40.8347C150.191 41.166 150.361 41.6436 150.361 42.2678V44.9205H149.622V42.3746C149.622 41.9257 149.51 41.582 149.285 41.3439C149.061 41.1057 148.754 40.9866 148.365 40.9866C147.971 40.9866 147.658 41.1098 147.425 41.3562C147.192 41.6025 147.076 41.9612 147.076 42.432V44.9205H146.329V40.4199H147.076V41.0605C147.224 40.8305 147.425 40.6527 147.68 40.5266C147.934 40.4008 148.215 40.3378 148.522 40.3378C149.069 40.3378 149.512 40.5035 149.852 40.8347Z" fill="#F9F9F9"/>
<path d="M157.038 44.2306L158.434 40.4199H159.231L157.465 44.9205H156.595L154.829 40.4199H155.634L157.038 44.2306Z" fill="#F9F9F9"/>
<path d="M167.829 42.9496H164.232C164.26 43.393 164.412 43.7394 164.688 43.9884C164.965 44.2377 165.3 44.3621 165.694 44.3621C166.017 44.3621 166.287 44.2869 166.503 44.1362C166.719 43.9857 166.871 43.7845 166.959 43.5326H167.764C167.643 43.9652 167.402 44.3169 167.041 44.5879C166.68 44.859 166.231 44.9945 165.694 44.9945C165.267 44.9945 164.885 44.8987 164.548 44.707C164.212 44.5154 163.948 44.243 163.756 43.8899C163.564 43.5367 163.469 43.1275 163.469 42.662C163.469 42.1968 163.562 41.7888 163.748 41.4383C163.934 41.088 164.195 40.8183 164.532 40.6294C164.869 40.4405 165.256 40.346 165.694 40.346C166.121 40.346 166.499 40.4392 166.827 40.6252C167.156 40.8115 167.409 41.0675 167.587 41.3931C167.765 41.7189 167.854 42.0871 167.854 42.4977C167.854 42.6403 167.846 42.7908 167.829 42.9496ZM166.893 41.6068C166.767 41.4015 166.596 41.2454 166.38 41.1386C166.164 41.0318 165.924 40.9785 165.661 40.9785C165.284 40.9785 164.962 41.099 164.696 41.3398C164.431 41.5808 164.279 41.9147 164.24 42.3418H167.082C167.082 42.0572 167.019 41.8121 166.893 41.6068Z" fill="#F9F9F9"/>
<path d="M173.283 44.8179C173.009 44.7002 172.793 44.536 172.634 44.3251C172.475 44.1144 172.388 43.8721 172.371 43.5983H173.143C173.165 43.8228 173.27 44.0062 173.459 44.1485C173.648 44.291 173.896 44.3621 174.203 44.3621C174.487 44.3621 174.712 44.2992 174.876 44.1732C175.04 44.0473 175.122 43.8885 175.122 43.6969C175.122 43.4997 175.035 43.3533 174.86 43.2575C174.684 43.1617 174.413 43.0673 174.047 42.9741C173.713 42.8866 173.44 42.7975 173.229 42.7072C173.019 42.6168 172.838 42.4828 172.687 42.3048C172.537 42.1269 172.462 41.8929 172.462 41.6026C172.462 41.3726 172.53 41.1619 172.667 40.9702C172.804 40.7786 172.998 40.6267 173.25 40.5144C173.502 40.4023 173.789 40.346 174.112 40.346C174.61 40.346 175.013 40.4721 175.32 40.7238C175.626 40.9757 175.79 41.3206 175.812 41.7586H175.065C175.049 41.5233 174.954 41.3344 174.782 41.192C174.609 41.0497 174.378 40.9784 174.088 40.9784C173.819 40.9784 173.606 41.0359 173.447 41.1509C173.288 41.2659 173.209 41.4165 173.209 41.6026C173.209 41.7504 173.257 41.8723 173.353 41.968C173.448 42.0639 173.569 42.1405 173.714 42.198C173.859 42.2555 174.06 42.3199 174.318 42.391C174.641 42.4787 174.903 42.5649 175.106 42.6497C175.309 42.7347 175.482 42.862 175.628 43.0316C175.773 43.2014 175.848 43.4232 175.853 43.6969C175.853 43.9432 175.785 44.165 175.648 44.3621C175.511 44.5592 175.318 44.7139 175.069 44.8261C174.82 44.9382 174.534 44.9945 174.211 44.9945C173.866 44.9945 173.556 44.9356 173.283 44.8179Z" fill="#F9F9F9"/>
<path d="M181.594 41.0359V43.6886C181.594 43.9077 181.64 44.0623 181.734 44.1527C181.827 44.243 181.988 44.2882 182.218 44.2882H182.768V44.9206H182.095C181.679 44.9206 181.367 44.8248 181.159 44.6331C180.951 44.4415 180.847 44.1268 180.847 43.6887V41.036H180.263V40.42H180.847V39.2867H181.594V40.42H182.768V41.036L181.594 41.0359Z" fill="#F9F9F9"/>
</svg>
